<svg xmlns="http://www.w3.org/2000/svg" width="24" height="24" fill="none" viewBox="0 0 24 24" id="roblox"><path fill="#EE4D4D" d="M8.07333 2.32321C7.68409 2.18154 7.25371 2.38223 7.11204 2.77146L2.32375 15.9272C2.18209 16.3164 2.38278 16.7468 2.77201 16.8885L15.9277 21.6767C16.3169 21.8184 16.7473 21.6177 16.889 21.2285L21.6773 8.07277C21.8189 7.68354 21.6183 7.25316 21.229 7.11149L8.07333 2.32321Z"></path><path fill="#ECEFF1" d="M10.7622 8.09094C10.373 7.94927 9.94261 8.14996 9.80095 8.53919L8.09084 13.2377C7.94918 13.6269 8.14987 14.0573 8.5391 14.1989L13.2376 15.909C13.6268 16.0507 14.0572 15.85 14.1988 15.4608L15.9089 10.7623C16.0506 10.3731 15.8499 9.94271 15.4607 9.80104L10.7622 8.09094Z"></path><path fill="#D64545" fill-rule="evenodd" d="M12 3.7524V20.2472L2.77201 16.8885C2.38278 16.7468 2.18209 16.3164 2.32375 15.9272L7.11204 2.77146C7.25371 2.38223 7.68409 2.18154 8.07333 2.32321L12 3.7524Z" clip-rule="evenodd"></path><path fill="#D4D6D8" fill-rule="evenodd" d="M12 8.54145V15.4586L8.5391 14.1989C8.14987 14.0573 7.94918 13.6269 8.09084 13.2377L9.80095 8.53919C9.94261 8.14996 10.373 7.94927 10.7622 8.09094L12 8.54145Z" clip-rule="evenodd"></path></svg>